# xmcd
#
# Track frame offsets:
#	150
#	18849
#	30358
#	42033
#	54729
#	68277
#	83546
#	101773
#	115404
#	135134
#	147272
#	167681
#	179827
#	196916
#	216555
#	233928
#	247774
#	263938
#	279250
#	301054
#
# Disc length: 4276 seconds
#
# Revision: 1
# Processed by: cddbd v1.5.2PL0 Copyright (c) Steve Scherf et al.
# Submitted via: audiograbber 1.83.01
#
DISCID=0710b214
DTITLE=Various Artist - CMT's 100 Greatest Country Duets - CD 1
DYEAR=2006
DGENRE=Country
TTITLE0=Kenny Rogers and Dolly Parton - Islands In The Stream
TTITLE1=Conway Twitty and Loretta Lynn - Louisiana Woman, Mississippi M
TTITLE2=Waylon Jennings and Willie Nelson - Mammas Don't Let Your Babies G
TTITLE3=Johnny Cash and June Carter - Jackson
TTITLE4=George Jones and Tammy Wynette - We're Gonna Hold On
TTITLE5=David Frizzell and Shelley West - You're The Reason God Made Okl
TTITLE6=Eddie Rabbitt and Crystal Gayle - You And I
TTITLE7=Kenny Rogers and Dottie West - Every Time Two Fools Collide
TTITLE8=Reba McEntire and Linda Davis - Does He Love You
TTITLE9=Conway Twitty and Loretta Lynn - After the Fire Is Gone
TTITLE10=Clint Black and Lisa Hartmann - When I Said I Do
TTITLE11=Travis Tritt and Marty Stuart - The Whiskey Ain't Working Anym
TTITLE12=Tim McGraw and Faith Hill - It's Your Love
TTITLE13=Brad Paisley and Alison Krauss - Whiskey Lullaby
TTITLE14=Ray Charles and Willie Nelson - Seven Spanish Angels
TTITLE15=George Jones and Tammy Wynette - Golden Ring
TTITLE16=Garth Brooks and Trisha Yearwood - In Another's Eyes
TTITLE17=Reba McEntire and Vince Gill - The Heart Won't Lie
TTITLE18=Merle Haggard and Willie Nelson - Pancho And Lefty
TTITLE19=Trisha Yearwood and Don Henley - Walkaway Joe
EXTD=
EXTT0=
EXTT1=
EXTT2=
EXTT3=
EXTT4=
EXTT5=
EXTT6=
EXTT7=
EXTT8=
EXTT9=
EXTT10=
EXTT11=
EXTT12=
EXTT13=
EXTT14=
EXTT15=
EXTT16=
EXTT17=
EXTT18=
EXTT19=
PLAYORDER=
